# xmcd
#
# Track frame offsets:
#	150
#	16979
#	36651
#	56996
#	75684
#	92003
#	104622
#	116727
#	131657
#	149516
#	163515
#	189168
#	208505
#	222574
#
# Disc length: 3272 seconds
#
# Revision: 0
# Processed by: cddbd v1.5.2PL0 Copyright (c) Steve Scherf et al.
# Submitted via: audiograbber 1.83.01
#
DISCID=d30cc60e
DTITLE=Celtic Cowboys - Greengrass Meets Bluegrass
DYEAR=2008
DGENRE=Country
TTITLE0=More Pretty Girls Than One - Silver Spear Reel
TTITLE1=Las Vegas In The Hills Of Donegal - Tamlin Reel
TTITLE2=Rare Old Mountain Dew - Black Berry Blossom
TTITLE3=Wagon Wheel
TTITLE4=Walk In The Irish Rain
TTITLE5=Dixieland
TTITLE6=I Can't Get You Off Of My Mind
TTITLE7=I Don't Even Know Your Name
TTITLE8=Jock Stewart
TTITLE9=Bad Moon Rising
TTITLE10=Doon In The Wee Room - Sally Garden's Reel
TTITLE11=Galway Girl
TTITLE12=I'm Walking
TTITLE13=Dirty Old Town
EXTD=
EXTT0=
EXTT1=
EXTT2=
EXTT3=
EXTT4=
EXTT5=
EXTT6=
EXTT7=
EXTT8=
EXTT9=
EXTT10=
EXTT11=
EXTT12=
EXTT13=
PLAYORDER=
